<svg width="232" height="31" viewBox="0 0 232 31" fill="none" xmlns="http://www.w3.org/2000/svg">
<path fill-rule="evenodd" clip-rule="evenodd" d="M15 28.0049C21.9036 28.0049 27.5 22.4084 27.5 15.5049C27.5 8.60132 21.9036 3.00488 15 3.00488C8.09644 3.00488 2.5 8.60132 2.5 15.5049C2.5 22.4084 8.09644 28.0049 15 28.0049ZM17.0752 10.9674C17.4061 10.9674 17.9323 11.0256 18.3219 11.1035L18.6721 8.90259C17.9126 8.74676 17.3282 8.62988 16.5298 8.62988C14.2317 8.62988 13.3165 9.72072 13.3165 11.6682V13.0899H11.875V15.3885H13.3165V22.3799H16.121V15.3885H18.1656L18.3609 13.0899H16.121V11.9803C16.121 11.357 16.1792 10.9674 17.0752 10.9674Z" fill="#216087"/>
<path fill-rule="evenodd" clip-rule="evenodd" d="M55 28.0049C61.9036 28.0049 67.5 22.4084 67.5 15.5049C67.5 8.60132 61.9036 3.00488 55 3.00488C48.0964 3.00488 42.5 8.60132 42.5 15.5049C42.5 22.4084 48.0964 28.0049 55 28.0049ZM58.0307 9.4001C57.2398 9.36401 57.0026 9.35636 55 9.35636C52.9974 9.35636 52.7602 9.36401 51.9694 9.4001C51.2381 9.43344 50.841 9.55562 50.5767 9.65833C50.2266 9.79439 49.9768 9.95691 49.7144 10.2194C49.4519 10.4818 49.2894 10.7316 49.1533 11.0817C49.0506 11.346 48.9284 11.7431 48.8951 12.4744C48.859 13.2652 48.8514 13.5024 48.8514 15.505C48.8514 17.5076 48.859 17.7448 48.8951 18.5356C48.9284 19.2669 49.0506 19.664 49.1533 19.9283C49.2894 20.2783 49.4519 20.5282 49.7144 20.7906C49.9768 21.0531 50.2266 21.2156 50.5767 21.3517C50.841 21.4544 51.2381 21.5765 51.9694 21.6099C52.7601 21.646 52.9973 21.6536 55 21.6536C57.0027 21.6536 57.2399 21.646 58.0307 21.6099C58.7619 21.5765 59.159 21.4544 59.4233 21.3517C59.7734 21.2156 60.0232 21.0531 60.2857 20.7906C60.5481 20.5282 60.7106 20.2783 60.8467 19.9283C60.9494 19.664 61.0716 19.2669 61.1049 18.5356C61.141 17.7448 61.1487 17.5076 61.1487 15.505C61.1487 13.5024 61.141 13.2652 61.1049 12.4744C61.0716 11.7431 60.9494 11.346 60.8467 11.0817C60.7106 10.7316 60.5481 10.4818 60.2857 10.2193C60.0232 9.95691 59.7734 9.79439 59.4233 9.65833C59.159 9.55562 58.7619 9.43344 58.0307 9.4001ZM51.9078 8.05015C52.7077 8.01365 52.9631 8.00502 55 8.00502C57.0369 8.00502 57.2923 8.01365 58.0923 8.05015C58.8905 8.08656 59.4357 8.21336 59.9128 8.39874C60.406 8.59041 60.8242 8.84686 61.2412 9.2638C61.6582 9.68078 61.9146 10.099 62.1063 10.5922C62.2917 11.0693 62.4185 11.6145 62.4549 12.4128C62.4914 13.2127 62.5 13.4681 62.5 15.505C62.5 17.5419 62.4914 17.7973 62.4549 18.5972C62.4185 19.3955 62.2917 19.9407 62.1063 20.4178C61.9146 20.9109 61.6582 21.3292 61.2412 21.7462C60.8242 22.1631 60.406 22.4196 59.9128 22.6112C59.4357 22.7966 58.8905 22.9234 58.0923 22.9598C57.2923 22.9963 57.0369 23.005 55 23.005C52.9631 23.005 52.7077 22.9963 51.9078 22.9598C51.1095 22.9234 50.5643 22.7966 50.0872 22.6112C49.594 22.4196 49.1758 22.1631 48.7588 21.7462C48.3419 21.3292 48.0854 20.9109 47.8938 20.4178C47.7084 19.9407 47.5816 19.3955 47.5451 18.5972C47.5086 17.7973 47.5 17.5419 47.5 15.505C47.5 13.4681 47.5086 13.2127 47.5451 12.4128C47.5816 11.6145 47.7084 11.0693 47.8938 10.5922C48.0854 10.099 48.3419 9.68078 48.7588 9.2638C49.1758 8.84686 49.594 8.59041 50.0872 8.39874C50.5643 8.21336 51.1095 8.08656 51.9078 8.05015ZM55.0035 11.6571C52.8764 11.6571 51.1521 13.3814 51.1521 15.5084C51.1521 17.6355 52.8764 19.3598 55.0035 19.3598C57.1305 19.3598 58.8548 17.6355 58.8548 15.5084C58.8548 13.3814 57.1305 11.6571 55.0035 11.6571ZM55.0035 18.0084C53.6228 18.0084 52.5035 16.8891 52.5035 15.5084C52.5035 14.1277 53.6228 13.0084 55.0035 13.0084C56.3842 13.0084 57.5035 14.1277 57.5035 15.5084C57.5035 16.8891 56.3842 18.0084 55.0035 18.0084ZM59.0067 12.4026C59.5038 12.4026 59.9067 11.9997 59.9067 11.5026C59.9067 11.0056 59.5038 10.6026 59.0067 10.6026C58.5097 10.6026 58.1067 11.0056 58.1067 11.5026C58.1067 11.9997 58.5097 12.4026 59.0067 12.4026Z" fill="#216087"/>
<path fill-rule="evenodd" clip-rule="evenodd" d="M95 28.0049C101.904 28.0049 107.5 22.4084 107.5 15.5049C107.5 8.60132 101.904 3.00488 95 3.00488C88.0964 3.00488 82.5 8.60132 82.5 15.5049C82.5 22.4084 88.0964 28.0049 95 28.0049ZM100.733 11.1825C101.355 11.108 101.949 10.943 102.5 10.698C102.088 11.315 101.566 11.857 100.964 12.2919C100.97 12.4234 100.973 12.5564 100.973 12.6899C100.973 16.7561 97.8773 21.4453 92.2172 21.4453C90.4793 21.4453 88.8619 20.9353 87.5 20.0624C87.7405 20.0914 87.9855 20.1059 88.2344 20.1059C89.6764 20.1059 91.0033 19.6134 92.0562 18.7885C90.7098 18.7635 89.5729 17.8736 89.1814 16.6511C89.3694 16.6871 89.5624 16.7066 89.7608 16.7066C90.0413 16.7066 90.3133 16.6686 90.5713 16.5986C89.1644 16.3152 88.103 15.0717 88.103 13.5803V13.5418C88.5184 13.7723 88.9924 13.9108 89.4974 13.9268C88.6709 13.3749 88.1285 12.4329 88.1285 11.3655C88.1285 10.8015 88.2799 10.2731 88.5449 9.81859C90.0628 11.6805 92.3302 12.9059 94.888 13.0339C94.8355 12.8084 94.808 12.5734 94.808 12.3324C94.808 10.633 96.1859 9.25513 97.8853 9.25513C98.7697 9.25513 99.5702 9.6291 100.132 10.2271C100.832 10.0886 101.492 9.83309 102.086 9.48011C101.856 10.1986 101.368 10.8015 100.733 11.1825Z" fill="#216087"/>
<path fill-rule="evenodd" clip-rule="evenodd" d="M147.5 15.5049C147.5 22.4084 141.904 28.0049 135 28.0049C128.096 28.0049 122.5 22.4084 122.5 15.5049C122.5 8.60132 128.096 3.00488 135 3.00488C141.904 3.00488 147.5 8.60132 147.5 15.5049ZM131.734 9.43243C131.734 10.2106 131.142 10.8404 130.215 10.8404C129.325 10.8404 128.732 10.2106 128.75 9.43243C128.732 8.61643 129.325 8.005 130.233 8.005C131.142 8.005 131.716 8.61643 131.734 9.43243ZM128.825 21.0163V11.9526H131.642V21.0163H128.825ZM133.825 11.954C133.863 12.7511 133.9 13.7149 133.9 14.8455H133.901V21.0183H136.718V15.791C136.718 15.5309 136.755 15.2719 136.829 15.0862C137.014 14.5676 137.477 14.0301 138.256 14.0301C139.275 14.0301 139.683 14.8266 139.683 15.995V21.0183H142.5V15.642C142.5 12.974 141.11 11.7506 139.257 11.7506C137.755 11.7506 136.829 12.621 136.458 13.1958H136.402L136.272 11.954H133.825Z" fill="#216087"/>
<rect x="163" y="2.55664" width="25" height="25" rx="12.5" fill="#216087"/>
<path d="M182.684 11.2476C182.598 10.9305 182.431 10.6414 182.199 10.4092C181.967 10.177 181.678 10.0098 181.36 9.92445C180.193 9.6084 175.5 9.6084 175.5 9.6084C175.5 9.6084 170.807 9.6084 169.64 9.92445C169.322 10.0098 169.033 10.177 168.801 10.4092C168.569 10.6414 168.402 10.9305 168.316 11.2476C168.098 12.4386 167.993 13.6474 168 14.8581C167.993 16.0689 168.098 17.2777 168.316 18.4686C168.402 18.7857 168.569 19.0749 168.801 19.3071C169.033 19.5393 169.322 19.7064 169.64 19.7918C170.807 20.1078 175.5 20.1078 175.5 20.1078C175.5 20.1078 180.193 20.1078 181.36 19.7918C181.678 19.7064 181.967 19.5393 182.199 19.3071C182.431 19.0749 182.598 18.7857 182.684 18.4686C182.902 17.2777 183.007 16.0689 183 14.8581C183.007 13.6474 182.902 12.4386 182.684 11.2476ZM174 17.108V12.6082L177.895 14.8581L174 17.108Z" fill="white"/>
<rect x="204" y="2.55664" width="25" height="25" rx="12.5" fill="#216087"/>
<path d="M221.113 22.3223H224C224 14.1848 217.269 7.55664 209 7.55664V10.3879C215.675 10.3879 221.113 15.741 221.113 22.3223ZM216.012 22.3223H218.9C218.9 16.9504 214.456 12.5723 209 12.5723V15.4035C210.875 15.4035 212.628 16.1254 213.959 17.4285C214.611 18.0662 215.128 18.8276 215.48 19.668C215.833 20.5084 216.014 21.4109 216.012 22.3223ZM210.997 22.3035C212.094 22.3035 212.994 21.4316 212.994 20.3441C212.994 19.266 212.094 18.3848 210.997 18.3848C209.891 18.3848 209 19.266 209 20.3441C209 21.4316 209.891 22.3035 210.997 22.3035Z" fill="white"/>
</svg>
